<svg width="54" height="64" viewBox="0 0 54 64" fill="none" xmlns="http://www.w3.org/2000/svg">
<path fill-rule="evenodd" clip-rule="evenodd" d="M39.2435 49.9845C49.5322 50.1173 55.8617 42.5464 52.3802 34.5773C48.8988 26.608 45.428 24.815 39.9629 19.0373C34.4951 13.2596 26.5444 3.26496 26.582 0.907471C26.6222 3.26496 18.999 13.2596 13.5312 19.0373C8.06608 24.815 4.59805 26.608 1.1139 34.5773C-2.36756 42.5464 3.96457 50.1173 14.2506 49.9845C21.3128 49.8932 24.491 45.2336 25.7874 42.3204L25.7874 46.1331C25.7874 46.1331 23.5327 59.8862 7.6205 61.3918L5.08389 61.3918L5.08389 63.5349L48.4129 63.5349L48.4129 61.3918L45.8736 61.3918C29.9641 59.8862 27.7067 46.1331 27.7067 46.1331L27.7067 42.821C29.234 45.7374 32.5732 49.8983 39.2435 49.9845Z" fill="#1A1919"/>
</svg>
