<svg xmlns="http://www.w3.org/2000/svg">
    <symbol id="instagram">
        <svg xmlns="http://www.w3.org/2000/svg" viewBox="0 0 38 38" width="38" height="38">
            <rect width="38" height="38" rx="5" fill="#EFEEF3"/>
            <path d="M19.0078 13.8739C16.1685 13.8739 13.8783 16.1641 13.8783 19.0033C13.8783 21.8426 16.1685 24.1328 19.0078 24.1328C21.8471 24.1328 24.1373 21.8426 24.1373 19.0033C24.1373 16.1641 21.8471 13.8739 19.0078 13.8739ZM19.0078 22.3382C17.173 22.3382 15.673 20.8426 15.673 19.0033C15.673 17.1641 17.1685 15.6685 19.0078 15.6685C20.8471 15.6685 22.3426 17.1641 22.3426 19.0033C22.3426 20.8426 20.8426 22.3382 19.0078 22.3382ZM25.5435 13.6641C25.5435 14.3292 25.0078 14.8605 24.3471 14.8605C23.6819 14.8605 23.1506 14.3248 23.1506 13.6641C23.1506 13.0033 23.6864 12.4676 24.3471 12.4676C25.0078 12.4676 25.5435 13.0033 25.5435 13.6641ZM28.9408 14.8783C28.8649 13.2757 28.4989 11.856 27.3247 10.6864C26.1551 9.51674 24.7355 9.15067 23.1328 9.07031C21.481 8.97656 16.5301 8.97656 14.8783 9.07031C13.2801 9.14621 11.8605 9.51228 10.6864 10.6819C9.51228 11.8516 9.15067 13.2712 9.07031 14.8739C8.97656 16.5257 8.97656 21.4766 9.07031 23.1283C9.14621 24.731 9.51228 26.1507 10.6864 27.3203C11.8605 28.49 13.2757 28.856 14.8783 28.9364C16.5301 29.0301 21.481 29.0301 23.1328 28.9364C24.7355 28.8605 26.1551 28.4944 27.3247 27.3203C28.4944 26.1507 28.8605 24.731 28.9408 23.1283C29.0346 21.4766 29.0346 16.5301 28.9408 14.8783ZM26.8069 24.9007C26.4587 25.7757 25.7846 26.4498 24.9051 26.8025C23.5881 27.3248 20.4632 27.2042 19.0078 27.2042C17.5524 27.2042 14.423 27.3203 13.1105 26.8025C12.2355 26.4542 11.5614 25.7801 11.2087 24.9007C10.6864 23.5837 10.8069 20.4587 10.8069 19.0033C10.8069 17.548 10.6908 14.4185 11.2087 13.106C11.5569 12.231 12.231 11.5569 13.1105 11.2042C14.4274 10.6819 17.5524 10.8025 19.0078 10.8025C20.4632 10.8025 23.5926 10.6864 24.9051 11.2042C25.7801 11.5525 26.4542 12.2266 26.8069 13.106C27.3292 14.423 27.2087 17.548 27.2087 19.0033C27.2087 20.4587 27.3292 23.5882 26.8069 24.9007Z"/>
        </svg>
    </symbol>
    <symbol id="facebook">
        <svg xmlns="http://www.w3.org/2000/svg" viewBox="0 0 38 38" width="38" height="38">
            <rect width="38" height="38" rx="5" fill="#EFEEF3"/>
            <path d="M23.3447 20.5025L23.8632 17.1235H20.621V14.9307C20.621 14.0063 21.0739 13.1052 22.526 13.1052H24V10.2283C24 10.2283 22.6624 10 21.3835 10C18.7134 10 16.9681 11.6184 16.9681 14.5482V17.1235H14V20.5025H16.9681V28.6711H20.621V20.5025H23.3447Z"/>
        </svg>
    </symbol>
    <symbol id="github">
        <svg xmlns="http://www.w3.org/2000/svg" viewBox="0 0 38 38" width="38" height="38">
            <rect width="38" height="38" rx="5" fill="#EFEEF3"/>
            <path d="M15.6895 24.7016C15.6895 24.7823 15.5968 24.8468 15.4798 24.8468C15.3468 24.8589 15.254 24.7944 15.254 24.7016C15.254 24.621 15.3468 24.5565 15.4637 24.5565C15.5847 24.5444 15.6895 24.6089 15.6895 24.7016ZM14.4355 24.5202C14.4073 24.6008 14.4879 24.6935 14.6089 24.7177C14.7137 24.7581 14.8347 24.7177 14.8589 24.6371C14.8831 24.5565 14.8065 24.4637 14.6855 24.4274C14.5806 24.3992 14.4637 24.4395 14.4355 24.5202ZM16.2177 24.4516C16.1008 24.4798 16.0202 24.5565 16.0323 24.6492C16.0444 24.7298 16.1492 24.7823 16.2702 24.754C16.3871 24.7258 16.4677 24.6492 16.4556 24.5685C16.4435 24.4919 16.3347 24.4395 16.2177 24.4516ZM18.871 9C13.2782 9 9 13.246 9 18.8387C9 23.3105 11.8145 27.1371 15.8347 28.4839C16.3508 28.5766 16.5323 28.2581 16.5323 27.996C16.5323 27.746 16.5202 26.3669 16.5202 25.5202C16.5202 25.5202 13.6976 26.125 13.1048 24.3185C13.1048 24.3185 12.6452 23.1452 11.9839 22.8427C11.9839 22.8427 11.0605 22.2097 12.0484 22.2218C12.0484 22.2218 13.0524 22.3024 13.6048 23.2621C14.4879 24.8185 15.9677 24.371 16.5444 24.1048C16.6371 23.4597 16.8992 23.0121 17.1895 22.746C14.9355 22.496 12.6613 22.1694 12.6613 18.2903C12.6613 17.1815 12.9677 16.625 13.6129 15.9153C13.5081 15.6532 13.1653 14.5726 13.7177 13.1774C14.5605 12.9153 16.5 14.2661 16.5 14.2661C17.3065 14.0403 18.1734 13.9234 19.0323 13.9234C19.8911 13.9234 20.7581 14.0403 21.5645 14.2661C21.5645 14.2661 23.504 12.9113 24.3468 13.1774C24.8992 14.5766 24.5565 15.6532 24.4516 15.9153C25.0968 16.629 25.4919 17.1855 25.4919 18.2903C25.4919 22.1815 23.1169 22.4919 20.8629 22.746C21.2339 23.0645 21.5484 23.6694 21.5484 24.6169C21.5484 25.9758 21.5363 27.6573 21.5363 27.9879C21.5363 28.25 21.7218 28.5685 22.2339 28.4758C26.2661 27.1371 29 23.3105 29 18.8387C29 13.246 24.4637 9 18.871 9ZM12.9194 22.9073C12.8669 22.9476 12.879 23.0403 12.9476 23.1169C13.0121 23.1815 13.1048 23.2097 13.1573 23.1573C13.2097 23.1169 13.1976 23.0242 13.129 22.9476C13.0645 22.8831 12.9718 22.8548 12.9194 22.9073ZM12.4839 22.5806C12.4556 22.6331 12.496 22.6976 12.5766 22.7379C12.6411 22.7782 12.7218 22.7661 12.75 22.7097C12.7782 22.6573 12.7379 22.5927 12.6573 22.5524C12.5766 22.5282 12.5121 22.5403 12.4839 22.5806ZM13.7903 24.0161C13.7258 24.0685 13.75 24.1895 13.8427 24.2661C13.9355 24.3589 14.0524 24.371 14.1048 24.3065C14.1573 24.254 14.1331 24.1331 14.0524 24.0565C13.9637 23.9637 13.8427 23.9516 13.7903 24.0161ZM13.3306 23.4234C13.2661 23.4637 13.2661 23.5685 13.3306 23.6613C13.3952 23.754 13.504 23.7944 13.5565 23.754C13.621 23.7016 13.621 23.5968 13.5565 23.504C13.5 23.4113 13.3952 23.371 13.3306 23.4234Z"/>
        </svg>
    </symbol>
    <symbol id="dribbble">
        <svg width="38px" height="38px" viewBox="0 0 38 38" version="1.1"
            xmlns="http://www.w3.org/2000/svg"
            xmlns:xlink="http://www.w3.org/1999/xlink" preserveAspectRatio="xMidYMid">
            <path d="M128,8.5 C194,8.5 247.4,61.9 247.4,127.8 C247.4,193.7 194,247.2 128,247.2 C62,247.2 8.6,193.8 8.6,127.9 C8.6,62 62,8.5 128,8.5 L128,8.5 L128,8.5 Z" fill="#E74D89"></path>
            <path d="M128,255.7 C57.4,255.7 0,198.4 0,127.9 C0,57.3 57.4,0 128,0 C198.6,0 256,57.3 256,127.8 C256,198.3 198.6,255.7 128,255.7 L128,255.7 L128,255.7 Z M235.9,145.3 C232.2,144.1 202.1,135.2 167.8,140.6 C182.1,179.8 187.9,211.8 189,218.4 C213.6,201.9 231.1,175.7 235.9,145.3 L235.9,145.3 L235.9,145.3 Z M170.7,228.5 C169.1,218.9 162.7,185.5 147.4,145.7 C147.2,145.8 146.9,145.9 146.7,145.9 C85,167.4 62.9,210.1 60.9,214.1 C79.4,228.5 102.7,237.1 128,237.1 C143.1,237.2 157.6,234.1 170.7,228.5 L170.7,228.5 L170.7,228.5 Z M46.8,201 C49.3,196.8 79.3,147.2 135.7,128.9 C137.1,128.4 138.6,128 140,127.6 C137.3,121.4 134.3,115.2 131.1,109.1 C76.5,125.4 23.5,124.7 18.7,124.6 C18.7,125.7 18.6,126.8 18.6,127.9 C18.7,156 29.3,181.6 46.8,201 L46.8,201 L46.8,201 Z M21,105.6 C25.9,105.7 70.9,105.9 122.1,92.3 C104,60.1 84.4,33.1 81.6,29.2 C50.9,43.6 28.1,71.8 21,105.6 L21,105.6 L21,105.6 Z M102.4,21.8 C105.4,25.8 125.3,52.8 143.2,85.7 C182.1,71.1 198.5,49.1 200.5,46.3 C181.2,29.2 155.8,18.8 128,18.8 C119.2,18.8 110.6,19.9 102.4,21.8 L102.4,21.8 L102.4,21.8 Z M212.6,58.9 C210.3,62 192,85.5 151.6,102 C154.1,107.2 156.6,112.5 158.9,117.8 C159.7,119.7 160.5,121.6 161.3,123.4 C197.7,118.8 233.8,126.2 237.4,126.9 C237.1,101.2 227.9,77.5 212.6,58.9 L212.6,58.9 L212.6,58.9 Z" fill="#B2215A"></path>
        </svg>
    </symbol>
    <symbol id="twitter">
        <svg width="20" height="17" viewBox="0 0 20 17" fill="none"
            xmlns="http://www.w3.org/2000/svg">
            <path d="M17.9441 4.0482C17.9568 4.22586 17.9568 4.40355 17.9568 4.58121C17.9568 9.99996 13.8325 16.2436 6.29441 16.2436C3.97207 16.2436 1.81473 15.571 0 14.4036C0.329961 14.4416 0.647187 14.4543 0.989844 14.4543C2.90605 14.4543 4.67004 13.8071 6.07867 12.703C4.27664 12.665 2.76648 11.4848 2.24617 9.86039C2.5 9.89844 2.75379 9.92383 3.02031 9.92383C3.38832 9.92383 3.75637 9.87305 4.09898 9.78426C2.22082 9.40352 0.812148 7.75379 0.812148 5.76141V5.71066C1.35781 6.01523 1.99238 6.20559 2.66492 6.23094C1.56086 5.49488 0.837539 4.23855 0.837539 2.81723C0.837539 2.05582 1.04055 1.35785 1.3959 0.748711C3.41367 3.23602 6.44668 4.86035 9.84766 5.03805C9.78422 4.73348 9.74613 4.41625 9.74613 4.09898C9.74613 1.84008 11.5736 0 13.8451 0C15.0253 0 16.0913 0.494922 16.84 1.29441C17.7664 1.11676 18.6547 0.774102 19.4416 0.30457C19.137 1.25637 18.4898 2.05586 17.6395 2.56344C18.4644 2.47465 19.2639 2.24617 19.9999 1.92895C19.4416 2.74109 18.7436 3.46441 17.9441 4.0482V4.0482Z" fill="none"/>
        </svg>
    </symbol>
</svg>
	