<svg width="0" height="0" class="hidden">
    <symbol fill="none" xmlns="http://www.w3.org/2000/svg" viewBox="0 0 59 61" id="Carreau">
        <path fill-rule="evenodd" clip-rule="evenodd"
            d="M0.230713 30.6278L29.5044 60.831L58.7781 30.6278L29.5044 0.424927L0.230713 30.6278Z"
            fill="#F24822"></path>
    </symbol>
    <symbol fill="none" xmlns="http://www.w3.org/2000/svg" viewBox="0 0 56 62" id="Coeur">
        <path fill-rule="evenodd" clip-rule="evenodd"
            d="M41.3409 0.753722C30.6512 0.918036 28.5261 13.0882 28.5261 13.0882C28.5261 13.0882 26.0593 0.918036 15.3695 0.753722C4.67949 0.589148 -1.89904 9.96336 1.71924 19.831C5.33727 29.6984 8.94225 31.9188 14.6228 39.0727C20.3031 46.2268 28.5673 58.6025 28.5261 61.5215C28.4851 58.6025 36.4071 46.2268 42.0877 39.0727C47.7682 31.9188 51.3732 29.6984 54.9912 19.831C58.6092 9.96336 52.031 0.589148 41.3409 0.753722Z"
            fill="#F24822"></path>
    </symbol>
    <symbol fill="none" xmlns="http://www.w3.org/2000/svg" viewBox="0 0 56 61" id="Trefle">
        <path fill-rule="evenodd" clip-rule="evenodd"
            d="M42.7554 20.2885C41.0563 20.2885 39.4373 20.6593 37.9608 21.3285C39.3471 19.1393 40.1608 16.4871 40.1608 13.6269C40.1608 6.12171 34.5709 0.0374756 27.6759 0.0374756C20.7809 0.0374756 15.1913 6.12171 15.1913 13.6269C15.1913 16.3501 15.93 18.8839 17.197 21.01C15.9372 20.5447 14.5883 20.2885 13.1841 20.2885C6.28884 20.2885 0.699463 26.3727 0.699463 33.8778C0.699463 41.383 6.28884 47.4672 13.1841 47.4672C14.7413 47.4672 16.2308 47.1542 17.6056 46.5871C17.6053 46.5903 23.4158 44.8824 27.2354 37.3152V41.8714C27.2354 41.8714 25.277 56.2336 11.4706 57.8058H9.26719V60.0439H46.868V57.8058H44.6649C30.8584 56.2336 28.8999 41.8714 28.8999 41.8714V37.6219C29.6113 39.3271 33.5446 47.6648 42.3844 47.4578C42.5079 47.4609 42.6309 47.4672 42.7554 47.4672C49.6506 47.4672 55.24 41.383 55.24 33.8778C55.24 26.3727 49.6506 20.2885 42.7554 20.2885Z"
            fill="#1A1919"></path>
    </symbol>
    <symbol xmlns="http://www.w3.org/2000/svg" viewBox="0 0 55 57" id="A">
        <path
            d="M28.8281 9.85156L13.3594 57H0.898438L22.0312 0.125H29.9609L28.8281 9.85156ZM41.6797 57L26.1719 9.85156L24.9219 0.125H32.9297L54.1797 57H41.6797ZM40.9766 35.8281V45.0078H10.9375V35.8281H40.9766Z"></path>
    </symbol>
</svg>
    